<?xml version="1.0" ?><svg viewBox="0 0 128 128" xmlns="http://www.w3.org/2000/svg"><defs><style>.cls-1{fill:#ffcf01;}.cls-2{fill:#f9a01b;}.cls-3{fill:#a64d2c;}</style></defs><title/><g data-name="04 Crowdfunding" id="_04_Crowdfunding"><circle class="cls-1" cx="65.3" cy="62.4" r="22"/><circle class="cls-2" cx="65.3" cy="62.4" r="16.5"/><circle class="cls-1" cx="97.3" cy="30.4" r="16"/><circle class="cls-1" cx="97.3" cy="30.4" r="12"/><circle class="cls-1" cx="33.3" cy="94.4" r="16"/><circle class="cls-1" cx="33.3" cy="94.4" r="12"/><circle class="cls-1" cx="31.3" cy="28.4" r="14"/><circle class="cls-1" cx="31.3" cy="28.4" r="10.5"/><circle class="cls-1" cx="99.3" cy="96.4" r="14"/><circle class="cls-1" cx="99.3" cy="96.4" r="10.5"/><path class="cls-3" d="M80.2,65.6A17.5,17.5,0,1,0,62.7,83.1,17.52,17.52,0,0,0,80.2,65.6ZM62.7,81.1A15.5,15.5,0,1,1,78.2,65.6,15.52,15.52,0,0,1,62.7,81.1Z"/><path class="cls-3" d="M58.13,86.09A21,21,0,0,1,42.2,70.18a1,1,0,0,0-2,.43,22.91,22.91,0,0,0,5.51,10.52l-2,2a1,1,0,0,0,1.41,1.41l2-2c4.39,4,9.73,5.53,10.73,5.53A1,1,0,0,0,58.13,86.09Z"/><path class="cls-3" d="M67.28,45.1A21.05,21.05,0,0,1,83.2,61a1,1,0,0,0,2-.43,22.92,22.92,0,0,0-5.51-10.51l2-2a1,1,0,0,0-1.41-1.41l-2,2a22.94,22.94,0,0,0-10.52-5.51A1,1,0,0,0,67.28,45.1Z"/><path class="cls-3" d="M64.13,86.09c-1.34.09-1.18,2.45.1,2.45h.07C65.67,88.45,65.48,86,64.13,86.09Z"/><path class="cls-3" d="M61.2,45.11h.07c1.36-.1,1.2-2.54-.17-2.45S59.92,45.11,61.2,45.11Z"/><path class="cls-3" d="M61.27,86.09c-1.36-.08-1.51,2.36-.17,2.45h.07C62.48,88.54,62.58,86.18,61.27,86.09Z"/><path class="cls-3" d="M64.13,45.11h.07c1.32,0,1.41-2.36.1-2.46S62.81,45,64.13,45.11Z"/><path class="cls-3" d="M42.21,67c-.1-1.35-2.55-1.18-2.45.17S42.31,68.37,42.21,67Z"/><path class="cls-3" d="M83.19,64.17c.1,1.36,2.55,1.17,2.45-.17S83.1,62.82,83.19,64.17Z"/><path class="cls-3" d="M39.76,64c-.09,1.37,2.36,1.53,2.45.17S39.85,62.65,39.76,64Z"/><path class="cls-3" d="M85.65,67.2c.1-1.36-2.36-1.52-2.45-.17S85.55,68.56,85.65,67.2Z"/><path class="cls-3" d="M66.29,61a1,1,0,0,0,2,0,5.59,5.59,0,0,0-4.58-5.49v-.73a1,1,0,0,0-2,0v.73c-6.08,1.11-6.08,9.87,0,11v7.1a3.58,3.58,0,0,1-2.58-3.42,1,1,0,0,0-2,0,5.59,5.59,0,0,0,4.58,5.49v.73a1,1,0,0,0,2,0v-.73c6.08-1.11,6.08-9.87,0-11v-7.1A3.58,3.58,0,0,1,66.29,61ZM61.7,57.59v6.85A3.56,3.56,0,0,1,61.7,57.59Zm2,16V66.76A3.56,3.56,0,0,1,63.7,73.61Z"/><path class="cls-3" d="M83.09,87.41A1,1,0,0,0,84.51,86l-4.87-4.87a22.92,22.92,0,0,0,5.51-10.52,1,1,0,0,0-2-.43A21,21,0,0,1,67.28,86.09a1,1,0,0,0,.43,2,22.94,22.94,0,0,0,10.52-5.51Z"/><path class="cls-3" d="M42.31,43.79a1,1,0,0,0-1.41,1.41l4.87,4.87a22.91,22.91,0,0,0-5.51,10.52,1,1,0,0,0,2,.43A21,21,0,0,1,58.13,45.1a1,1,0,0,0-.43-2,22.93,22.93,0,0,0-10.52,5.51Z"/><path class="cls-3" d="M28.7,20.1A11.5,11.5,0,1,0,40.2,31.6,11.51,11.51,0,0,0,28.7,20.1Zm0,21a9.5,9.5,0,1,1,9.5-9.5A9.51,9.51,0,0,1,28.7,41.1Z"/><path class="cls-3" d="M28.7,18.89c1.35,0,1.34-2.29,0-2.29S27.34,18.89,28.7,18.89Z"/><path class="cls-3" d="M16,31.6c0-1.35-2.29-1.34-2.29,0S16,33,16,31.6Z"/><path class="cls-3" d="M16,28.77a13,13,0,0,1,9.86-9.85,1,1,0,0,0-.43-2A15,15,0,0,0,14.06,28.33,1,1,0,0,0,16,28.77Z"/><path class="cls-3" d="M14.06,34.87A15,15,0,0,0,25.44,46.24a1,1,0,0,0,.43-2A13,13,0,0,1,16,34.43,1,1,0,0,0,14.06,34.87Z"/><path class="cls-3" d="M31.54,18.91a13,13,0,0,1,9.86,9.85,1,1,0,0,0,2-.43A15,15,0,0,0,32,17,1,1,0,0,0,31.54,18.91Z"/><path class="cls-3" d="M43.34,34.87a1,1,0,0,0-2-.43,13,13,0,0,1-9.86,9.85,1,1,0,0,0,.22,2C33.62,46.26,41.49,43.21,43.34,34.87Z"/><path class="cls-3" d="M28.7,44.31c-1.35,0-1.34,2.29,0,2.29S30,44.31,28.7,44.31Z"/><path class="cls-3" d="M41.41,31.6c0,1.35,2.29,1.35,2.29,0S41.41,30.26,41.41,31.6Z"/><path class="cls-3" d="M30.87,28.68a.75.75,0,0,0,1.5,0,3.67,3.67,0,0,0-2.92-3.59v-.37a.75.75,0,0,0-1.5,0v.37a3.67,3.67,0,0,0,0,7.18v4.27a2.16,2.16,0,0,1-1.42-2,.75.75,0,0,0-1.5,0A3.67,3.67,0,0,0,28,38.1v.37a.75.75,0,0,0,1.5,0V38.1a3.67,3.67,0,0,0,0-7.18V26.66A2.16,2.16,0,0,1,30.87,28.68Zm-2.92-2v4.05A2.16,2.16,0,0,1,28,26.66Zm1.5,9.88v-4A2.16,2.16,0,0,1,29.45,36.54Z"/><path class="cls-3" d="M96.7,111.1A11.5,11.5,0,1,0,85.2,99.6,11.51,11.51,0,0,0,96.7,111.1Zm0-21a9.5,9.5,0,1,1-9.5,9.5A9.51,9.51,0,0,1,96.7,90.1Z"/><path class="cls-3" d="M96.7,86.89c1.33,0,1.37-2.29,0-2.29S95.34,86.89,96.7,86.89Z"/><path class="cls-3" d="M84,99.6c0-1.35-2.29-1.34-2.29,0S84,100.94,84,99.6Z"/><path class="cls-3" d="M84,96.77a13,13,0,0,1,9.86-9.85,1,1,0,0,0-.43-2A15,15,0,0,0,82.06,96.33,1,1,0,0,0,84,96.77Z"/><path class="cls-3" d="M93.87,112.29A13,13,0,0,1,84,102.43a1,1,0,0,0-2,.43,15,15,0,0,0,11.38,11.37A1,1,0,0,0,93.87,112.29Z"/><path class="cls-3" d="M111.34,96.33A15,15,0,0,0,100,85a1,1,0,0,0-.43,2,13,13,0,0,1,9.86,9.85A1,1,0,0,0,111.34,96.33Z"/><path class="cls-3" d="M109.39,102.43a13,13,0,0,1-9.86,9.85,1,1,0,0,0,.43,2,15,15,0,0,0,11.38-11.37A1,1,0,0,0,109.39,102.43Z"/><path class="cls-3" d="M96.7,112.31c-1.35,0-1.34,2.29,0,2.29S98,112.31,96.7,112.31Z"/><path class="cls-3" d="M109.41,99.6c0,1.35,2.29,1.35,2.29,0S109.41,98.23,109.41,99.6Z"/><path class="cls-3" d="M94.54,102.52a.75.75,0,0,0-1.5,0A3.67,3.67,0,0,0,96,106.1v.37a.75.75,0,0,0,1.5,0v-.37a3.67,3.67,0,0,0,0-7.18V94.66a2.16,2.16,0,0,1,1.42,2,.75.75,0,0,0,1.5,0,3.67,3.67,0,0,0-2.92-3.59v-.37a.75.75,0,0,0-1.5,0v.37a3.67,3.67,0,0,0,0,7.18v4.27A2.16,2.16,0,0,1,94.54,102.52Zm2.92,2v-4A2.16,2.16,0,0,1,97.45,104.54ZM96,94.66v4.05A2.16,2.16,0,0,1,96,94.66Z"/><path class="cls-3" d="M94.7,20.6a13,13,0,1,0,13,13A13,13,0,0,0,94.7,20.6Zm0,24a11,11,0,1,1,11-11A11,11,0,0,1,94.7,44.6Z"/><path class="cls-3" d="M94.7,18.93c1.35,0,1.35-2.33,0-2.33S93.35,18.93,94.7,18.93Z"/><path class="cls-3" d="M80,33.6c0-1.36-2.33-1.35-2.33,0S80,34.94,80,33.6Z"/><path class="cls-3" d="M80.06,30.33A15,15,0,0,1,91.43,19,1,1,0,0,0,91,17,17,17,0,0,0,78.11,29.9,1,1,0,0,0,80.06,30.33Z"/><path class="cls-3" d="M78.11,37.3A17,17,0,0,0,91,50.19a1,1,0,0,0,.43-2A15,15,0,0,1,80.06,36.87,1,1,0,0,0,78.11,37.3Z"/><path class="cls-3" d="M98,19a15,15,0,0,1,11.37,11.37,1,1,0,0,0,2-.43A17,17,0,0,0,98.4,17,1,1,0,0,0,98,19Z"/><path class="cls-3" d="M111.3,37.3a1,1,0,0,0-2-.43A15,15,0,0,1,98,48.24a1,1,0,0,0,.22,2C100.26,50.21,109.19,46.77,111.3,37.3Z"/><path class="cls-3" d="M94.7,48.27c-1.35,0-1.35,2.33,0,2.33S96.06,48.27,94.7,48.27Z"/><path class="cls-3" d="M109.37,33.6c0,1.36,2.33,1.35,2.33,0S109.37,32.25,109.37,33.6Z"/><path class="cls-3" d="M97.29,30.27a.75.75,0,0,0,1.5,0,4.09,4.09,0,0,0-3.33-4v-.52a.75.75,0,0,0-1.5,0v.52a4.08,4.08,0,0,0,0,8v5.12a2.58,2.58,0,0,1-1.83-2.46.75.75,0,0,0-1.5,0,4.09,4.09,0,0,0,3.33,4v.52a.75.75,0,0,0,1.5,0v-.52a4.08,4.08,0,0,0,0-8V27.81A2.58,2.58,0,0,1,97.29,30.27ZM94,27.81v4.92A2.57,2.57,0,0,1,94,27.81Zm1.5,11.59V34.47A2.57,2.57,0,0,1,95.45,39.39Z"/><path class="cls-3" d="M30.7,110.6a13,13,0,1,0-13-13A13,13,0,0,0,30.7,110.6Zm0-24a11,11,0,1,1-11,11A11,11,0,0,1,30.7,86.6Z"/><path class="cls-3" d="M30.7,82.93c1.35,0,1.35-2.33,0-2.33S29.35,82.93,30.7,82.93Z"/><path class="cls-3" d="M16,97.6c0-1.36-2.33-1.35-2.33,0S16,98.94,16,97.6Z"/><path class="cls-3" d="M16.06,94.33A15,15,0,0,1,27.43,83,1,1,0,0,0,27,81,17,17,0,0,0,14.11,93.9,1,1,0,0,0,16.06,94.33Z"/><path class="cls-3" d="M27.43,112.24a15,15,0,0,1-11.37-11.37,1,1,0,0,0-2,.43A17,17,0,0,0,27,114.19,1,1,0,0,0,27.43,112.24Z"/><path class="cls-3" d="M47.3,93.9A17,17,0,0,0,34.4,81,1,1,0,0,0,34,83,15,15,0,0,1,45.34,94.33,1,1,0,0,0,47.3,93.9Z"/><path class="cls-3" d="M45.34,100.87A15,15,0,0,1,34,112.24a1,1,0,0,0,.43,2A17,17,0,0,0,47.3,101.3,1,1,0,0,0,45.34,100.87Z"/><path class="cls-3" d="M30.7,112.27c-1.35,0-1.35,2.33,0,2.33S32.06,112.27,30.7,112.27Z"/><path class="cls-3" d="M45.37,97.6c0,1.36,2.33,1.35,2.33,0S45.37,96.25,45.37,97.6Z"/><path class="cls-3" d="M28.12,100.93a.75.75,0,0,0-1.5,0,4.09,4.09,0,0,0,3.33,4v.52a.75.75,0,0,0,1.5,0v-.52a4.08,4.08,0,0,0,0-8V91.81a2.58,2.58,0,0,1,1.83,2.46.75.75,0,0,0,1.5,0,4.09,4.09,0,0,0-3.33-4v-.52a.75.75,0,0,0-1.5,0v.52a4.08,4.08,0,0,0,0,8v5.12A2.58,2.58,0,0,1,28.12,100.93Zm3.33,2.46V98.47A2.57,2.57,0,0,1,31.45,103.39ZM30,91.81v4.92A2.57,2.57,0,0,1,30,91.81Z"/></g></svg>